<svg width="210" height="22" viewBox="0 0 210 22" fill="none" xmlns="http://www.w3.org/2000/svg">
<g clip-path="url(#clip0_370_356)">
<path d="M45.0288 2.76611C45.0288 1.2503 46.2717 0.0214844 47.805 0.0214844H75.5667C77.1 0.0214844 78.3429 1.2503 78.3429 2.76611V19.2339C78.3429 20.7497 77.1 21.9785 75.5667 21.9785H47.805C46.2717 21.9785 45.0288 20.7497 45.0288 19.2339V2.76611Z" fill="#D8E3F3"/>
<path d="M73.6999 6.90417H71.9547C71.427 6.90417 71.0211 7.06468 70.7776 7.58632L67.4495 15.0899H69.8035C69.8035 15.0899 70.2094 14.0868 70.2906 13.846C70.5341 13.846 72.8476 13.846 73.1723 13.846C73.2535 14.1269 73.4564 15.0498 73.4564 15.0498H75.5669L73.6999 6.90417ZM70.94 12.1607C71.1429 11.6792 71.8329 9.87351 71.8329 9.87351C71.8329 9.91363 72.0358 9.39199 72.117 9.11111L72.2794 9.83338C72.2794 9.83338 72.7258 11.7996 72.807 12.2008H70.94V12.1607Z" fill="#3362AB"/>
<path d="M67.6116 12.4034C67.6116 14.0887 66.0693 15.2123 63.6746 15.2123C62.6599 15.2123 61.6858 15.0116 61.1582 14.7709L61.4829 12.9251L61.767 13.0454C62.4976 13.3664 62.9846 13.4868 63.8776 13.4868C64.527 13.4868 65.2169 13.2461 65.2169 12.6843C65.2169 12.3232 64.9328 12.0824 64.0399 11.6812C63.1876 11.2799 62.0511 10.6379 62.0511 9.47422C62.0511 7.86917 63.634 6.78577 65.8663 6.78577C66.7187 6.78577 67.4492 6.94627 67.8957 7.1469L67.571 8.91245L67.4087 8.75195C67.0028 8.59144 66.4751 8.43094 65.704 8.43094C64.8517 8.47106 64.4458 8.8322 64.4458 9.15321C64.4458 9.51434 64.9328 9.79523 65.704 10.1564C67.0028 10.7583 67.6116 11.4404 67.6116 12.4034Z" fill="#3362AB"/>
<path d="M47.8049 6.9857L47.8455 6.8252H51.336C51.8231 6.8252 52.1884 6.9857 52.3101 7.50734L53.0813 11.1187C52.3101 9.19264 50.5243 7.62772 47.8049 6.9857Z" fill="#F9B50B"/>
<path d="M57.9925 6.90585L54.4614 15.0515H52.0667L50.0374 8.23001C51.4985 9.15291 52.7161 10.5975 53.1626 11.6006L53.4061 12.4433L55.5978 6.86572H57.9925V6.90585Z" fill="#3362AB"/>
<path d="M58.9259 6.86572H61.1582L59.7377 15.0515H57.5054L58.9259 6.86572Z" fill="#3362AB"/>
</g>
<g clip-path="url(#clip1_370_356)">
<path d="M0.95752 2.76611C0.95752 1.2503 2.2287 0.0214844 3.79679 0.0214844H32.1895C33.7576 0.0214844 35.0288 1.2503 35.0288 2.76611V19.2339C35.0288 20.7497 33.7576 21.9785 32.1895 21.9785H3.79679C2.2287 21.9785 0.95752 20.7497 0.95752 19.2339V2.76611Z" fill="#CCDEFF"/>
<path d="M8.60292 7.92425C8.24704 7.68775 7.78265 7.56921 7.20975 7.56921H4.99178C4.81615 7.56921 4.71912 7.65412 4.70069 7.82377L3.7997 13.291C3.79034 13.3447 3.80424 13.3938 3.84127 13.4384C3.87809 13.4831 3.9244 13.5054 3.97987 13.5054H5.03339C5.21817 13.5054 5.31973 13.4207 5.33838 13.2508L5.58786 11.7769C5.59697 11.7054 5.62947 11.6474 5.68493 11.6026C5.74035 11.558 5.80967 11.5288 5.89285 11.5154C5.97602 11.5022 6.05445 11.4954 6.12852 11.4954C6.20237 11.4954 6.29012 11.5 6.39194 11.5089C6.49351 11.5178 6.55825 11.5222 6.586 11.5222C7.38072 11.5222 8.00451 11.3057 8.45742 10.8723C8.91011 10.4391 9.13672 9.83838 9.13672 9.06991C9.13672 8.54285 8.95863 8.16099 8.60292 7.92412V7.92425ZM7.45936 9.56588C7.41301 9.8786 7.29301 10.084 7.09895 10.1823C6.90485 10.2807 6.62761 10.3297 6.26724 10.3297L5.80976 10.343L6.04547 8.90918C6.06386 8.811 6.1239 8.76185 6.22563 8.76185H6.4891C6.85858 8.76185 7.12675 8.81334 7.2931 8.9159C7.45936 9.01871 7.51483 9.23542 7.45936 9.56588Z" fill="#003087"/>
<path d="M32.0091 7.56921H30.9834C30.8815 7.56921 30.8215 7.61837 30.8031 7.71671L29.9021 13.2912L29.8882 13.318C29.8882 13.3629 29.9067 13.4051 29.9437 13.4453C29.9805 13.4855 30.0269 13.5056 30.0823 13.5056H30.9973C31.1726 13.5056 31.2697 13.4209 31.2885 13.251L32.1895 7.77032V7.75701C32.1894 7.63188 32.1292 7.56938 32.0091 7.56938V7.56921Z" fill="#009CDE"/>
<path d="M19.6161 9.728C19.6161 9.68343 19.5976 9.64092 19.5608 9.60082C19.5238 9.56064 19.4822 9.54041 19.4361 9.54041H18.3687C18.2668 9.54041 18.1836 9.5853 18.1191 9.67438L16.6497 11.7649L16.0398 9.75487C15.9933 9.61204 15.8918 9.54041 15.7348 9.54041H14.695C14.6487 9.54041 14.6071 9.56056 14.5704 9.60082C14.5333 9.64092 14.5149 9.68352 14.5149 9.728C14.5149 9.74598 14.605 10.0094 14.7852 10.5186C14.9653 11.028 15.1594 11.5774 15.3674 12.1671C15.5753 12.7566 15.6838 13.0694 15.6931 13.1048C14.9353 14.1056 14.5565 14.6415 14.5565 14.7129C14.5565 14.8291 14.6165 14.8871 14.7367 14.8871H15.8041C15.9057 14.8871 15.9888 14.8426 16.0537 14.7532L19.5886 9.82175C19.6069 9.80406 19.6161 9.77293 19.6161 9.72796V9.728Z" fill="#003087"/>
<path d="M29.5562 9.53838H28.5027C28.3731 9.53838 28.2949 9.68583 28.2671 9.98069C28.0265 9.62345 27.5879 9.44458 26.9501 9.44458C26.2847 9.44458 25.7186 9.68583 25.252 10.1682C24.7853 10.6507 24.552 11.2181 24.552 11.8702C24.552 12.3974 24.7114 12.8172 25.0302 13.1297C25.349 13.4426 25.7764 13.5988 26.3126 13.5988C26.5805 13.5988 26.8531 13.5451 27.1304 13.438C27.4076 13.3308 27.6246 13.1879 27.782 13.0092C27.782 13.0181 27.7725 13.0582 27.7543 13.1296C27.7356 13.2012 27.7265 13.255 27.7265 13.2904C27.7265 13.4335 27.7864 13.5048 27.9067 13.5048H28.8633C29.0387 13.5048 29.1404 13.4201 29.1681 13.2502L29.7365 9.75276C29.7456 9.6991 29.7318 9.65007 29.6949 9.60534C29.6577 9.56078 29.6116 9.53838 29.5562 9.53838ZM27.7472 12.1784C27.5116 12.4017 27.2273 12.5133 26.8947 12.5133C26.6266 12.5133 26.4096 12.442 26.2432 12.2989C26.0767 12.1563 25.9935 11.9598 25.9935 11.7093C25.9935 11.379 26.1091 11.0996 26.3402 10.8718C26.5709 10.644 26.8577 10.5302 27.1996 10.5302C27.4582 10.5302 27.6731 10.6038 27.8442 10.7512C28.015 10.8986 28.1008 11.1019 28.1008 11.361C28.1007 11.6826 27.9829 11.9551 27.7472 12.1784Z" fill="#009CDE"/>
<path d="M13.8086 9.53838H12.755C12.6254 9.53838 12.547 9.68583 12.5193 9.98069C12.2698 9.62345 11.8308 9.44458 11.2024 9.44458C10.537 9.44458 9.97084 9.68583 9.50421 10.1682C9.03745 10.6507 8.8042 11.2181 8.8042 11.8702C8.8042 12.3974 8.96364 12.8172 9.28248 13.1297C9.60133 13.4426 10.0286 13.5988 10.5647 13.5988C10.8234 13.5988 11.0915 13.5451 11.3687 13.438C11.6459 13.3308 11.8678 13.1879 12.0341 13.0092C11.997 13.1163 11.9786 13.2101 11.9786 13.2904C11.9786 13.4335 12.0387 13.5048 12.1588 13.5048H13.1153C13.2908 13.5048 13.3926 13.4201 13.4203 13.2502L13.9886 9.75276C13.9978 9.6991 13.9839 9.65007 13.9471 9.60534C13.9101 9.56078 13.8639 9.53838 13.8086 9.53838ZM11.9995 12.185C11.7638 12.4041 11.4749 12.5133 11.1332 12.5133C10.865 12.5133 10.6501 12.442 10.4885 12.2989C10.3267 12.1563 10.2459 11.9598 10.2459 11.7093C10.2459 11.379 10.3614 11.0996 10.5925 10.8718C10.8234 10.644 11.1099 10.5301 11.452 10.5301C11.7106 10.5301 11.9255 10.6038 12.0966 10.7512C12.2674 10.8986 12.353 11.1019 12.353 11.361C12.353 11.6916 12.2352 11.9663 11.9995 12.185Z" fill="#003087"/>
<path d="M24.3506 7.92425C23.9947 7.68775 23.5305 7.56921 22.9574 7.56921H20.7533C20.5684 7.56921 20.4667 7.65412 20.4483 7.82377L19.5473 13.291C19.5379 13.3447 19.5518 13.3938 19.5889 13.4384C19.6255 13.4831 19.672 13.5054 19.7274 13.5054H20.8641C20.975 13.5054 21.0489 13.4474 21.0859 13.3312L21.3355 11.7769C21.3447 11.7054 21.377 11.6474 21.4325 11.6026C21.488 11.558 21.5572 11.5288 21.6405 11.5154C21.7236 11.5022 21.802 11.4954 21.8761 11.4954C21.95 11.4954 22.0377 11.5 22.1394 11.5089C22.2411 11.5178 22.306 11.5222 22.3335 11.5222C23.1284 11.5222 23.7521 11.3057 24.205 10.8723C24.6578 10.4391 24.8842 9.83838 24.8842 9.06991C24.8843 8.54285 24.7063 8.16095 24.3506 7.92412V7.92425ZM22.9297 10.1286C22.7264 10.2626 22.4213 10.3296 22.0148 10.3296L21.5712 10.343L21.8068 8.9091C21.8251 8.81096 21.8852 8.76173 21.987 8.76173H22.2364C22.4398 8.76173 22.6015 8.7707 22.7218 8.78852C22.8417 8.80646 22.9574 8.8622 23.0683 8.95596C23.1793 9.0498 23.2347 9.18611 23.2347 9.36469C23.2347 9.74003 23.1329 9.99451 22.9297 10.1286Z" fill="#009CDE"/>
</g>
<g clip-path="url(#clip2_370_356)">
<path d="M88.3428 2.76611C88.3428 1.2503 89.5857 0.0214844 91.1189 0.0214844H118.881C120.414 0.0214844 121.657 1.2503 121.657 2.76611V19.2339C121.657 20.7497 120.414 21.9785 118.881 21.9785H91.1189C89.5857 21.9785 88.3428 20.7497 88.3428 19.2339V2.76611Z" fill="#CCEFFF"/>
<path d="M108.643 17.4758H101.356V4.52905H108.643V17.4758Z" fill="#6C6BBD"/>
<path d="M101.823 11C101.823 8.37369 103.067 6.03424 105.004 4.5266C103.588 3.42414 101.8 2.76612 99.8572 2.76612C95.258 2.76612 91.5298 6.4525 91.5298 11C91.5298 15.5475 95.258 19.2339 99.8572 19.2339C101.8 19.2339 103.588 18.5759 105.004 17.4734C103.067 15.9658 101.823 13.6263 101.823 11Z" fill="#EB001B"/>
<path d="M118.471 11C118.471 15.5475 114.742 19.2339 110.143 19.2339C108.2 19.2339 106.413 18.5759 104.996 17.4734C106.933 15.9658 108.177 13.6263 108.177 11C108.177 8.37369 106.933 6.03424 104.996 4.5266C106.413 3.42414 108.2 2.76612 110.143 2.76612C114.742 2.76612 118.471 6.4525 118.471 11Z" fill="#0099DF"/>
</g>
<g clip-path="url(#clip3_370_356)">
<path d="M131.657 2.76611C131.657 1.2503 132.928 0.0214844 134.496 0.0214844H162.889C164.457 0.0214844 165.728 1.2503 165.728 2.76611V19.2339C165.728 20.7497 164.457 21.9785 162.889 21.9785H134.496C132.928 21.9785 131.657 20.7497 131.657 19.2339V2.76611Z" fill="#FCE0CF"/>
<path d="M151.944 10.9855C151.946 10.3956 151.717 9.80483 151.257 9.35965C150.795 8.91355 150.183 8.69256 149.571 8.69611C149.568 8.69611 149.565 8.69592 149.562 8.69592C148.235 8.69592 147.181 9.71386 147.181 10.9979C147.181 12.2692 148.248 13.2996 149.562 13.2996C150.891 13.2996 151.944 12.2815 151.944 10.9979C151.944 10.9936 151.944 10.9897 151.944 10.9855Z" fill="#F26E21"/>
<path d="M146.739 11.9722C146.383 12.3166 146.055 12.4512 145.701 12.4585C144.839 12.451 144.205 11.8339 144.205 10.9542C144.205 10.5113 144.378 10.1483 144.653 9.83827C144.911 9.60178 145.243 9.44898 145.625 9.44898C146.037 9.44898 146.357 9.58176 146.724 9.93591V8.91779C146.358 8.7408 146.037 8.65222 145.625 8.65222C145.043 8.69244 144.494 8.91981 144.073 9.27683C143.951 9.38237 143.835 9.49887 143.736 9.63221C143.429 10.0175 143.243 10.4893 143.243 10.9986C143.243 12.2822 144.297 13.256 145.625 13.256C145.631 13.256 145.637 13.2555 145.644 13.2554C145.653 13.2555 145.661 13.256 145.67 13.256C146.037 13.256 146.357 13.1677 146.77 12.9906L146.739 11.9722C146.723 11.9872 146.754 12.001 146.739 12.0152V11.9722Z" fill="#2B2B2B"/>
<path d="M154.95 9.28659L153.913 11.7514L152.722 8.82947H151.76L153.638 13.3006H154.142L156.111 8.82947H155.149L154.95 9.28659Z" fill="#2B2B2B"/>
<path d="M156.478 10.7773V13.168H158.951H158.997V12.4594H158.218H157.394V11.6628V11.2645H158.951V10.5117H157.394V9.58215H158.997V8.82947H156.478V10.7773Z" fill="#2B2B2B"/>
<path d="M135.779 8.83044H134.496V13.1689H135.779C136.465 13.1689 136.969 12.9917 137.381 12.6818C137.885 12.2834 138.206 11.6638 138.206 10.9999C138.206 9.71578 137.244 8.83044 135.779 8.83044ZM136.832 12.1065C136.557 12.3277 136.191 12.4604 135.641 12.4604H135.366V9.58306H135.595C136.145 9.58306 136.511 9.67159 136.786 9.93709C137.107 10.2025 137.29 10.6012 137.29 10.9997C137.336 11.3981 137.153 11.8406 136.832 12.1065Z" fill="#2B2B2B"/>
<path d="M139.488 8.82935H138.618V13.1677H139.488V8.82935Z" fill="#2B2B2B"/>
<path d="M141.686 10.5122C141.137 10.3352 140.999 10.2023 140.999 9.98105C140.999 9.71543 141.274 9.49412 141.64 9.49412C141.915 9.49412 142.144 9.58271 142.373 9.84833L142.831 9.27288C142.465 8.96287 142.007 8.78601 141.503 8.78601C140.725 8.78601 140.083 9.31726 140.083 10.0253C140.083 10.6452 140.358 10.9108 141.183 11.2207C141.549 11.3533 141.686 11.3977 141.778 11.4862C141.961 11.5746 142.053 11.7519 142.053 11.9287C142.053 12.2829 141.778 12.5486 141.366 12.5486C140.953 12.5486 140.587 12.3273 140.404 11.9731L139.854 12.5044C140.267 13.0798 140.77 13.3454 141.412 13.3454C142.327 13.3454 142.968 12.7699 142.968 11.9287C142.968 11.1763 142.694 10.8665 141.686 10.5122Z" fill="#2B2B2B"/>
<path d="M161.47 11.3527C162.157 11.2201 162.523 10.7773 162.523 10.1134C162.523 9.31671 161.928 8.82947 160.92 8.82947H159.592V13.168H160.462V11.4413H160.6L161.836 13.168H162.889L161.47 11.3527ZM160.737 10.8215H160.462V9.49356H160.737C161.286 9.49356 161.607 9.71481 161.607 10.1578C161.607 10.6003 161.287 10.8215 160.737 10.8215Z" fill="#2B2B2B"/>
</g>
<g clip-path="url(#clip4_370_356)">
<path d="M175.728 2.76611C175.728 1.2503 176.971 0.0214844 178.504 0.0214844H206.266C207.799 0.0214844 209.042 1.2503 209.042 2.76611V19.2339C209.042 20.7497 207.799 21.9785 206.266 21.9785H178.504C176.971 21.9785 175.728 20.7497 175.728 19.2339V2.76611Z" fill="#D4DEF7"/>
<path d="M200.313 6.79437L199.668 8.19921H200.961L200.313 6.79437ZM192.875 7.66492C192.996 7.60791 193.068 7.4839 193.068 7.3299C193.068 7.17899 192.993 7.0697 192.871 7.01834C192.761 6.9614 192.59 6.95483 192.427 6.95483H191.274V7.73757H192.412C192.594 7.73761 192.746 7.73521 192.875 7.66492ZM178.098 6.79437L177.461 8.19921H178.739L178.098 6.79437ZM207.77 15.7942H205.961V15.0383H207.762C207.941 15.0383 208.066 15.0173 208.141 14.951C208.212 14.8919 208.253 14.8085 208.252 14.7212C208.252 14.6185 208.207 14.5369 208.137 14.4881C208.07 14.4343 207.971 14.4098 207.807 14.4098C206.928 14.3829 205.831 14.4342 205.831 13.3188C205.831 12.8076 206.192 12.2695 207.175 12.2695H209.04V11.5682H207.307C206.784 11.5682 206.404 11.6808 206.135 11.8561V11.5682H203.571C203.161 11.5682 202.68 11.6596 202.453 11.8561V11.5682H197.875V11.8561C197.51 11.6197 196.895 11.5682 196.612 11.5682H193.592V11.8561C193.304 11.605 192.663 11.5682 192.272 11.5682H188.892L188.119 12.3209L187.395 11.5682H182.346V16.4868H187.3L188.096 15.722L188.847 16.4868L191.9 16.4893V15.3322H192.201C192.606 15.338 193.083 15.3233 193.505 15.1594V16.4867H196.023V15.2047H196.145C196.3 15.2047 196.315 15.2105 196.315 15.3498V16.4864H203.966C204.451 16.4864 204.959 16.3747 205.24 16.1716V16.4864H207.667C208.172 16.4864 208.665 16.4227 209.04 16.2598V15.3435C208.813 15.6427 208.369 15.7944 207.77 15.7944L207.77 15.7942ZM192.241 14.6328H191.072V15.815H189.252L188.099 14.6482L186.9 15.815H183.191V12.2903H186.957L188.109 13.4457L189.301 12.2903H192.293C193.036 12.2903 193.871 12.4754 193.871 13.4515C193.871 14.4307 193.059 14.6328 192.241 14.6328ZM197.86 14.473C197.992 14.645 198.011 14.8056 198.015 15.1163V15.8151H197.075V15.3741C197.075 15.1621 197.097 14.8481 196.923 14.6842C196.787 14.5579 196.578 14.5278 196.236 14.5278H195.235V15.8151H194.294V12.2903H196.456C196.931 12.2903 197.276 12.3093 197.583 12.4566C197.879 12.6172 198.065 12.8373 198.065 13.2394C198.065 13.8019 197.648 14.0889 197.401 14.1771C197.609 14.2463 197.78 14.3703 197.86 14.473ZM201.728 13.0192H199.535V13.66H201.675V14.3792H199.535V15.0805L201.728 15.0837V15.815H198.603V12.2903H201.728V13.0192ZM204.135 15.815H202.311V15.0592H204.128C204.305 15.0592 204.431 15.038 204.51 14.9718C204.575 14.9173 204.621 14.8381 204.621 14.7421C204.621 14.6393 204.571 14.5577 204.507 14.5088C204.435 14.4551 204.336 14.4308 204.173 14.4308C203.297 14.4038 202.2 14.455 202.2 13.3397C202.2 12.8284 202.558 12.2903 203.539 12.2903H205.417V13.0404H203.699C203.529 13.0404 203.418 13.0463 203.324 13.1042C203.221 13.1613 203.183 13.246 203.183 13.3577C203.183 13.4907 203.27 13.5812 203.388 13.6203C203.487 13.6512 203.593 13.6602 203.752 13.6602L204.257 13.6726C204.765 13.6836 205.114 13.7628 205.326 13.956C205.508 14.1257 205.606 14.34 205.606 14.7027C205.606 15.461 205.079 15.815 204.135 15.815ZM196.871 13.0761C196.758 13.0156 196.591 13.0124 196.425 13.0124H195.271V13.804H196.409C196.591 13.804 196.746 13.7982 196.871 13.7314C196.993 13.6654 197.065 13.5438 197.065 13.3931C197.065 13.2423 196.993 13.1332 196.871 13.0761ZM207.335 13.0123C207.165 13.0123 207.052 13.0182 206.956 13.076C206.857 13.1332 206.819 13.2178 206.819 13.3296C206.819 13.4625 206.903 13.553 207.024 13.5922C207.123 13.6231 207.229 13.6322 207.385 13.6322L207.893 13.6443C208.405 13.6557 208.747 13.735 208.955 13.9282C208.993 13.9549 209.016 13.9851 209.042 14.0153V13.0124H207.335L207.335 13.0123ZM192.273 13.0123H191.052V13.9101H192.262C192.622 13.9101 192.846 13.7495 192.846 13.4446C192.846 13.1363 192.611 13.0123 192.273 13.0123ZM184.123 13.0123V13.6532H186.179V14.3724H184.123V15.0736H186.426L187.496 14.0396L186.471 13.0123H184.123ZM190.136 15.4773V12.6514L188.698 14.0416L190.136 15.4773ZM184.202 9.81806V10.4254H192.026L192.023 9.14056H192.174C192.28 9.14389 192.311 9.15267 192.311 9.31012V10.4254H196.358V10.1263C196.684 10.2836 197.192 10.4254 197.86 10.4254H199.562L199.927 9.64273H200.734L201.091 10.4254H204.371V9.68194L204.868 10.4254H207.497V5.51074H204.895V6.09117L204.531 5.51074H201.861V6.09117L201.527 5.51074H197.92C197.317 5.51074 196.786 5.58652 196.358 5.79773V5.51074H193.869V5.79773C193.596 5.58002 193.224 5.51074 192.811 5.51074H183.719L183.109 6.78018L182.483 5.51074H179.619V6.09117L179.305 5.51074H176.862L175.728 7.84755V9.71674L177.405 6.19277H178.797L180.389 9.52923V6.19277H181.918L183.144 8.58334L184.27 6.19277H185.829V9.71674H184.869L184.865 6.95683L183.507 9.71674H182.685L181.324 6.95439V9.71674H179.419L179.059 8.93071H177.109L176.745 9.71674H175.728V10.4257H177.328L177.689 9.64293H178.497L178.857 10.4257H182.005V9.8272L182.286 10.4282H183.921L184.202 9.81818L184.202 9.81806ZM196.531 6.60353C196.834 6.32227 197.308 6.19257 197.954 6.19257H198.86V6.94765H197.973C197.631 6.94765 197.438 6.99336 197.252 7.15646C197.092 7.3048 196.983 7.5853 196.983 7.95464C196.983 8.3322 197.066 8.60439 197.24 8.78221C197.384 8.92165 197.647 8.96395 197.893 8.96395H198.314L199.634 6.19269H201.037L202.622 9.52582V6.19273H204.048L205.695 8.64697V6.19273H206.654V9.71658H205.327L203.552 7.0717V9.71658H201.644L201.28 8.93055H199.334L198.981 9.71658H197.885C197.43 9.71658 196.853 9.62605 196.527 9.3268C196.198 9.02762 196.027 8.62231 196.027 7.98154C196.026 7.45884 196.129 6.98109 196.531 6.60353ZM194.605 6.19261H195.561V9.71658H194.605V6.19261ZM190.297 6.19261H192.451C192.929 6.19261 193.282 6.20404 193.585 6.36141C193.881 6.51881 194.059 6.74863 194.059 7.14162C194.059 7.70353 193.642 7.99377 193.399 8.08097C193.604 8.15114 193.779 8.27506 193.862 8.3777C193.995 8.55299 194.017 8.70956 194.017 9.02425V9.71655H193.073L193.069 9.27215C193.069 9.06005 193.092 8.7551 192.921 8.58567C192.785 8.46178 192.576 8.4348 192.239 8.4348H191.233V9.71658H190.297L190.297 6.19261ZM186.521 6.19261H189.65V6.92644H187.458V7.56164H189.597V8.28401H187.458V8.98777H189.65V9.71655H186.521V6.19261Z" fill="#2557D6"/>
</g>
<defs>
<clipPath id="clip0_370_356">
<rect width="33.3141" height="21.957" fill="white" transform="translate(45.0288 0.0214844)"/>
</clipPath>
<clipPath id="clip1_370_356">
<rect width="34.0712" height="21.957" fill="white" transform="translate(0.95752 0.0214844)"/>
</clipPath>
<clipPath id="clip2_370_356">
<rect width="33.3141" height="21.957" fill="white" transform="translate(88.3428 0.0214844)"/>
</clipPath>
<clipPath id="clip3_370_356">
<rect width="34.0712" height="21.957" fill="white" transform="translate(131.657 0.0214844)"/>
</clipPath>
<clipPath id="clip4_370_356">
<rect width="33.3141" height="21.957" fill="white" transform="translate(175.728 0.0214844)"/>
</clipPath>
</defs>
</svg>
